<?xml version="1.0" standalone="no"?>
<!DOCTYPE svg PUBLIC "-//W3C//DTD SVG 20010904//EN"
 "http://www.w3.org/TR/2001/REC-SVG-20010904/DTD/svg10.dtd">
<svg version="1.0" xmlns="http://www.w3.org/2000/svg"
 width="150" height="150" viewBox="0 0 360.000000 360.000000"
 preserveAspectRatio="xMidYMid meet">
<metadata>
Created by potrace 1.16, written by Peter Selinger 2001-2019
</metadata>
<g transform="translate(0.000000,360.000000) scale(0.100000,-0.100000)"
fill="#adadad" stroke="none">
<path d="M1675 3279 c-132 -11 -206 -27 -339 -70 -522 -170 -914 -628 -1001
-1169 -19 -121 -22 -350 -5 -455 66 -419 297 -784 640 -1015 251 -169 516
-250 820 -251 161 0 286 16 425 56 546 158 961 627 1050 1185 19 121 22 351 5
456 -57 356 -219 654 -492 899 -290 261 -710 400 -1103 364z m407 -114 c418
-86 784 -370 969 -750 105 -218 134 -351 134 -625 0 -180 -3 -216 -24 -300
-130 -530 -519 -919 -1051 -1051 -85 -21 -118 -24 -305 -24 -162 1 -227 4
-285 18 -282 64 -509 188 -704 382 -196 196 -324 432 -383 708 -14 64 -18 127
-17 292 0 202 2 215 31 325 135 507 512 884 1013 1012 186 47 432 53 622 13z"/>
<path d="M1618 2765 c-199 -38 -388 -142 -530 -294 -84 -88 -120 -141 -174
-256 -72 -151 -87 -223 -88 -410 -1 -189 16 -271 89 -423 55 -114 89 -165 173
-253 88 -94 168 -153 287 -210 158 -77 239 -94 430 -93 187 1 259 16 412 89
211 100 369 257 468 468 73 153 88 225 89 412 1 136 -3 173 -22 245 -28 106
-104 266 -165 346 -53 70 -164 177 -231 223 -71 49 -223 118 -311 141 -105 28
-318 36 -427 15z m425 -109 c151 -45 256 -105 371 -215 119 -114 193 -236 243
-398 24 -79 27 -103 27 -243 0 -140 -3 -164 -27 -243 -50 -162 -124 -284 -243
-398 -115 -109 -218 -169 -371 -216 -79 -24 -103 -27 -243 -27 -140 0 -164 3
-243 27 -153 47 -256 107 -371 216 -119 114 -193 236 -243 398 -24 79 -27 103
-27 243 0 140 3 164 27 243 103 337 369 575 714 637 26 5 104 7 173 5 97 -2
144 -9 213 -29z"/>
</g>
</svg>
